REM DIRINDEX 1
REM DIRNAME folder01
TITLE ""
FILE "Disk1Track08.mp3" MP3
  TRACK 01 AUDIO
    TITLE "1:cjc069_0051"
    INDEX 01 00:00:00
  TRACK 02 AUDIO
    TITLE "1:cjc069_0052"
    INDEX 01 00:20:04
  TRACK 03 AUDIO
    TITLE "1:cjc069_0053"
    INDEX 01 00:24:41
  TRACK 04 AUDIO
    TITLE "1:cjc069_0054"
    INDEX 01 00:31:14
  TRACK 05 AUDIO
    TITLE "1:cjc069_0055"
    INDEX 01 00:43:62
  TRACK 06 AUDIO
    TITLE "0:"
    INDEX 01 00:55:67
